<?xml version="1.0" encoding="UTF-8" standalone="no"?>
<!DOCTYPE svg PUBLIC "-//W3C//DTD SVG 1.1//EN"
 "http://www.w3.org/Graphics/SVG/1.1/DTD/svg11.dtd">
<!-- Generated by graphviz version 2.38.0 (20140413.2041)
 -->
<!-- Title: %3 Pages: 1 -->
<svg width="397pt" height="643pt"
 viewBox="0.00 0.00 396.83 643.00" xmlns="http://www.w3.org/2000/svg" xmlns:xlink="http://www.w3.org/1999/xlink">
<g id="graph0" class="graph" transform="scale(1 1) rotate(0) translate(4 639)">
<title>%3</title>
<defs>
<linearGradient id="l_0" gradientUnits="userSpaceOnUse" x1="-4" y1="-317.5" x2="392.834" y2="-317.5" >
<stop offset="0" style="stop-color:deepskyblue;stop-opacity:1.;"/>
<stop offset="1" style="stop-color:aliceblue;stop-opacity:1.;"/>
</linearGradient>
</defs>
<polygon fill="url(#l_0)" stroke="none" points="-4,4 -4,-639 392.834,-639 392.834,4 -4,4"/>
<text text-anchor="start" x="102.417" y="-620.8" font-family="Times,serif" font-weight="bold" font-size="14.00">Rule &#39;key&#45;spacing&#39; flow</text>
<g id="clust1" class="cluster"><title>cluster_1</title>
<polygon fill="none" stroke="black" points="33.9418,-8 33.9418,-229 215.942,-229 215.942,-8 33.9418,-8"/>
<text text-anchor="middle" x="124.942" y="-213.8" font-family="Times,serif" font-size="14.00">lib/rules/key&#45;spacing.js</text>
</g>
<!-- lib/rules/key&#45;spacing.js#create -->
<g id="node1" class="node"><title>lib/rules/key&#45;spacing.js#create</title>
<defs>
<linearGradient id="l_1" gradientUnits="userSpaceOnUse" x1="118.442" y1="-180" x2="207.442" y2="-180" >
<stop offset="0" style="stop-color:white;stop-opacity:1.;"/>
<stop offset="1" style="stop-color:#e0eeee;stop-opacity:1.;"/>
</linearGradient>
</defs>
<polygon fill="url(#l_1)" stroke="none" points="207.442,-198 118.442,-198 118.442,-162 207.442,-162 207.442,-198"/>
<text text-anchor="middle" x="162.942" y="-176.3" font-family="Times,serif" font-size="14.00">+ create()</text>
</g>
<!-- verifyAlignment() -->
<g id="node2" class="node"><title>verifyAlignment()</title>
<defs>
<linearGradient id="l_2" gradientUnits="userSpaceOnUse" x1="63.4418" y1="-107" x2="206.442" y2="-107" >
<stop offset="0" style="stop-color:white;stop-opacity:1.;"/>
<stop offset="1" style="stop-color:#e0eeee;stop-opacity:1.;"/>
</linearGradient>
</defs>
<polygon fill="url(#l_2)" stroke="none" points="206.442,-125 63.4418,-125 63.4418,-89 206.442,-89 206.442,-125"/>
<text text-anchor="middle" x="134.942" y="-103.3" font-family="Times,serif" font-size="14.00">verifyAlignment()</text>
</g>
<!-- lib/rules/key&#45;spacing.js#create&#45;&gt;verifyAlignment() -->
<g id="edge1" class="edge"><title>lib/rules/key&#45;spacing.js#create&#45;&gt;verifyAlignment()</title>
<path fill="none" stroke="black" d="M156.164,-161.813C152.931,-153.615 148.99,-143.623 145.386,-134.485"/>
<polygon fill="black" stroke="black" points="148.582,-133.048 141.657,-125.029 142.07,-135.616 148.582,-133.048"/>
</g>
<!-- lib/ast&#45;utils -->
<g id="node7" class="node"><title>lib/ast&#45;utils</title>
<defs>
<linearGradient id="l_3" gradientUnits="userSpaceOnUse" x1="224.853" y1="-107" x2="351.031" y2="-107" >
<stop offset="0" style="stop-color:white;stop-opacity:1.;"/>
<stop offset="1" style="stop-color:#e0eeee;stop-opacity:1.;"/>
</linearGradient>
</defs>
<ellipse fill="url(#l_3)" stroke="black" cx="287.942" cy="-107" rx="63.0888" ry="18"/>
<text text-anchor="middle" x="287.942" y="-103.3" font-family="Times,serif" font-size="14.00">lib/ast&#45;utils</text>
</g>
<!-- lib/rules/key&#45;spacing.js#create&#45;&gt;lib/ast&#45;utils -->
<g id="edge12" class="edge"><title>lib/rules/key&#45;spacing.js#create&#45;&gt;lib/ast&#45;utils</title>
<path fill="none" stroke="black" d="M215.863,-148.941C228.036,-142.026 240.706,-134.83 251.966,-128.434"/>
<polygon fill="black" stroke="black" points="253.836,-131.397 260.803,-123.415 250.379,-125.31 253.836,-131.397"/>
</g>
<!-- context.report() -->
<g id="node3" class="node"><title>context.report()</title>
<defs>
<linearGradient id="l_4" gradientUnits="userSpaceOnUse" x1="69.4418" y1="-34" x2="200.442" y2="-34" >
<stop offset="0" style="stop-color:white;stop-opacity:1.;"/>
<stop offset="1" style="stop-color:#e0eeee;stop-opacity:1.;"/>
</linearGradient>
</defs>
<polygon fill="url(#l_4)" stroke="none" points="200.442,-52 69.4418,-52 69.4418,-16 200.442,-16 200.442,-52"/>
<text text-anchor="middle" x="134.942" y="-30.3" font-family="Times,serif" font-size="14.00">context.report()</text>
</g>
<!-- verifyAlignment()&#45;&gt;context.report() -->
<g id="edge2" class="edge"><title>verifyAlignment()&#45;&gt;context.report()</title>
<path fill="none" stroke="black" d="M134.942,-88.8129C134.942,-80.7895 134.942,-71.0475 134.942,-62.0691"/>
<polygon fill="black" stroke="black" points="138.442,-62.0288 134.942,-52.0288 131.442,-62.0289 138.442,-62.0288"/>
</g>
<!-- espree -->
<g id="node4" class="node"><title>espree</title>
<defs>
<linearGradient id="l_5" gradientUnits="userSpaceOnUse" x1="239.377" y1="-34" x2="336.506" y2="-34" >
<stop offset="0" style="stop-color:white;stop-opacity:1.;"/>
<stop offset="1" style="stop-color:#e0eeee;stop-opacity:1.;"/>
</linearGradient>
</defs>
<polygon fill="url(#l_5)" stroke="black" points="336.506,-34 312.224,-52 263.659,-52 239.377,-34 263.659,-16 312.224,-16 336.506,-34"/>
<text text-anchor="middle" x="287.942" y="-30.3" font-family="Times,serif" font-size="14.00">espree</text>
</g>
<!-- key&#45;spacing: 2 -->
<g id="node5" class="node"><title>key&#45;spacing: 2</title>
<defs>
<linearGradient id="l_6" gradientUnits="userSpaceOnUse" x1="172.942" y1="-594" x2="292.942" y2="-594" >
<stop offset="0" style="stop-color:white;stop-opacity:1.;"/>
<stop offset="1" style="stop-color:#e0eeee;stop-opacity:1.;"/>
</linearGradient>
</defs>
<polygon fill="url(#l_6)" stroke="black" points="292.942,-612 172.942,-612 172.942,-576 292.942,-576 292.942,-612"/>
<text text-anchor="middle" x="232.942" y="-590.3" font-family="Times,serif" font-size="14.00">key&#45;spacing: 2</text>
</g>
<!-- lib/cli.js -->
<g id="node6" class="node"><title>lib/cli.js</title>
<defs>
<linearGradient id="l_7" gradientUnits="userSpaceOnUse" x1="185.55" y1="-521" x2="280.333" y2="-521" >
<stop offset="0" style="stop-color:white;stop-opacity:1.;"/>
<stop offset="1" style="stop-color:#e0eeee;stop-opacity:1.;"/>
</linearGradient>
</defs>
<ellipse fill="url(#l_7)" stroke="black" cx="232.942" cy="-521" rx="47.3916" ry="18"/>
<text text-anchor="middle" x="232.942" y="-517.3" font-family="Times,serif" font-size="14.00">lib/cli.js</text>
</g>
<!-- key&#45;spacing: 2&#45;&gt;lib/cli.js -->
<g id="edge3" class="edge"><title>key&#45;spacing: 2&#45;&gt;lib/cli.js</title>
<path fill="none" stroke="black" d="M232.942,-575.813C232.942,-567.789 232.942,-558.047 232.942,-549.069"/>
<polygon fill="black" stroke="black" points="236.442,-549.029 232.942,-539.029 229.442,-549.029 236.442,-549.029"/>
</g>
<!-- lib/cli&#45;engine.js -->
<g id="node8" class="node"><title>lib/cli&#45;engine.js</title>
<defs>
<linearGradient id="l_8" gradientUnits="userSpaceOnUse" x1="76.4554" y1="-448" x2="239.428" y2="-448" >
<stop offset="0" style="stop-color:white;stop-opacity:1.;"/>
<stop offset="1" style="stop-color:#e0eeee;stop-opacity:1.;"/>
</linearGradient>
</defs>
<ellipse fill="url(#l_8)" stroke="black" cx="157.942" cy="-448" rx="81.4863" ry="18"/>
<text text-anchor="middle" x="157.942" y="-444.3" font-family="Times,serif" font-size="14.00">lib/cli&#45;engine.js</text>
</g>
<!-- lib/cli.js&#45;&gt;lib/cli&#45;engine.js -->
<g id="edge6" class="edge"><title>lib/cli.js&#45;&gt;lib/cli&#45;engine.js</title>
<path fill="none" stroke="black" d="M215.923,-503.889C206.255,-494.736 193.967,-483.103 183.193,-472.905"/>
<polygon fill="black" stroke="black" points="185.344,-470.121 175.676,-465.788 180.532,-475.205 185.344,-470.121"/>
</g>
<!-- lib/rules.js -->
<g id="node10" class="node"><title>lib/rules.js</title>
<defs>
<linearGradient id="l_9" gradientUnits="userSpaceOnUse" x1="205.352" y1="-274" x2="324.532" y2="-274" >
<stop offset="0" style="stop-color:white;stop-opacity:1.;"/>
<stop offset="1" style="stop-color:#e0eeee;stop-opacity:1.;"/>
</linearGradient>
</defs>
<ellipse fill="url(#l_9)" stroke="black" cx="264.942" cy="-274" rx="59.5901" ry="18"/>
<text text-anchor="middle" x="264.942" y="-270.3" font-family="Times,serif" font-size="14.00">lib/rules.js</text>
</g>
<!-- lib/cli.js&#45;&gt;lib/rules.js -->
<g id="edge7" class="edge"><title>lib/cli.js&#45;&gt;lib/rules.js</title>
<path fill="none" stroke="black" d="M238.622,-502.677C241.846,-492.176 245.679,-478.445 247.942,-466 258.457,-408.167 262.554,-339.248 264.085,-302.049"/>
<polygon fill="black" stroke="black" points="267.584,-302.127 264.466,-292.002 260.589,-301.861 267.584,-302.127"/>
</g>
<!-- lib/ast&#45;utils&#45;&gt;espree -->
<g id="edge4" class="edge"><title>lib/ast&#45;utils&#45;&gt;espree</title>
<path fill="none" stroke="black" d="M287.942,-88.8129C287.942,-80.7895 287.942,-71.0475 287.942,-62.0691"/>
<polygon fill="black" stroke="black" points="291.442,-62.0288 287.942,-52.0288 284.442,-62.0289 291.442,-62.0288"/>
</g>
<!-- lib/eslint.js -->
<g id="node9" class="node"><title>lib/eslint.js</title>
<defs>
<linearGradient id="l_10" gradientUnits="userSpaceOnUse" x1="95.9517" y1="-361" x2="219.932" y2="-361" >
<stop offset="0" style="stop-color:white;stop-opacity:1.;"/>
<stop offset="1" style="stop-color:#e0eeee;stop-opacity:1.;"/>
</linearGradient>
</defs>
<ellipse fill="url(#l_10)" stroke="black" cx="157.942" cy="-361" rx="61.99" ry="18"/>
<text text-anchor="middle" x="157.942" y="-357.3" font-family="Times,serif" font-size="14.00">lib/eslint.js</text>
</g>
<!-- lib/cli&#45;engine.js&#45;&gt;lib/eslint.js -->
<g id="edge5" class="edge"><title>lib/cli&#45;engine.js&#45;&gt;lib/eslint.js</title>
<path fill="none" stroke="black" d="M157.942,-429.799C157.942,-418.163 157.942,-402.548 157.942,-389.237"/>
<polygon fill="black" stroke="black" points="161.442,-389.175 157.942,-379.175 154.442,-389.175 161.442,-389.175"/>
<text text-anchor="middle" x="191.942" y="-400.8" font-family="Times,serif" font-size="14.00">api.verify</text>
</g>
<!-- lib/eslint.js&#45;&gt;lib/rules.js -->
<g id="edge9" class="edge"><title>lib/eslint.js&#45;&gt;lib/rules.js</title>
<path fill="none" stroke="black" d="M163.866,-342.857C168.274,-332.233 175.216,-318.953 184.942,-310 193.396,-302.218 203.857,-295.976 214.395,-291.044"/>
<polygon fill="black" stroke="black" points="215.845,-294.23 223.628,-287.041 213.061,-287.808 215.845,-294.23"/>
<text text-anchor="middle" x="218.942" y="-313.8" font-family="Times,serif" font-size="14.00">api.verify</text>
</g>
<!-- lib/rule&#45;context.js -->
<g id="node11" class="node"><title>lib/rule&#45;context.js</title>
<defs>
<linearGradient id="l_11" gradientUnits="userSpaceOnUse" x1="0.0582103" y1="-274" x2="185.825" y2="-274" >
<stop offset="0" style="stop-color:white;stop-opacity:1.;"/>
<stop offset="1" style="stop-color:#e0eeee;stop-opacity:1.;"/>
</linearGradient>
</defs>
<ellipse fill="url(#l_11)" stroke="black" cx="92.9418" cy="-274" rx="92.8835" ry="18"/>
<text text-anchor="middle" x="92.9418" y="-270.3" font-family="Times,serif" font-size="14.00">lib/rule&#45;context.js</text>
</g>
<!-- lib/eslint.js&#45;&gt;lib/rule&#45;context.js -->
<g id="edge8" class="edge"><title>lib/eslint.js&#45;&gt;lib/rule&#45;context.js</title>
<path fill="none" stroke="black" d="M118.897,-346.875C109.089,-341.642 99.7209,-334.529 93.9418,-325 89.9178,-318.365 88.5816,-310.269 88.547,-302.54"/>
<polygon fill="black" stroke="black" points="92.05,-302.598 89.1763,-292.4 85.0635,-302.164 92.05,-302.598"/>
<text text-anchor="middle" x="127.942" y="-313.8" font-family="Times,serif" font-size="14.00">api.verify</text>
</g>
<!-- lib/rules.js&#45;&gt;lib/rules/key&#45;spacing.js#create -->
<g id="edge11" class="edge"><title>lib/rules.js&#45;&gt;lib/rules/key&#45;spacing.js#create</title>
<path fill="none" stroke="black" d="M246.775,-256.72C239.844,-250.503 231.697,-243.187 223.758,-236.042"/>
<polygon fill="black" stroke="black" points="225.714,-233.093 215.942,-229 221.029,-238.294 225.714,-233.093"/>
</g>
<!-- lib/load&#45;rules.js -->
<g id="node12" class="node"><title>lib/load&#45;rules.js</title>
<defs>
<linearGradient id="l_12" gradientUnits="userSpaceOnUse" x1="225.156" y1="-180" x2="388.727" y2="-180" >
<stop offset="0" style="stop-color:white;stop-opacity:1.;"/>
<stop offset="1" style="stop-color:#e0eeee;stop-opacity:1.;"/>
</linearGradient>
</defs>
<ellipse fill="url(#l_12)" stroke="black" cx="306.942" cy="-180" rx="81.7856" ry="18"/>
<text text-anchor="middle" x="306.942" y="-176.3" font-family="Times,serif" font-size="14.00">lib/load&#45;rules.js</text>
</g>
<!-- lib/rules.js&#45;&gt;lib/load&#45;rules.js -->
<g id="edge10" class="edge"><title>lib/rules.js&#45;&gt;lib/load&#45;rules.js</title>
<path fill="none" stroke="black" d="M272.645,-256.126C278.882,-242.465 287.776,-222.982 294.944,-207.281"/>
<polygon fill="black" stroke="black" points="298.176,-208.629 299.145,-198.079 291.808,-205.722 298.176,-208.629"/>
</g>
</g>
</svg>
