<?xml version="1.0" encoding="UTF-8" standalone="no"?>
<!DOCTYPE svg PUBLIC "-//W3C//DTD SVG 1.1//EN"
 "http://www.w3.org/Graphics/SVG/1.1/DTD/svg11.dtd">
<!-- Generated by graphviz version 2.38.0 (20140413.2041)
 -->
<!-- Title: %3 Pages: 1 -->
<svg width="850pt" height="364pt"
 viewBox="0.00 0.00 850.00 364.20" xmlns="http://www.w3.org/2000/svg" xmlns:xlink="http://www.w3.org/1999/xlink">
<g id="graph0" class="graph" transform="scale(0.696105 0.696105) rotate(0) translate(4 519.2)">
<title>%3</title>
<defs>
<linearGradient id="l_0" gradientUnits="userSpaceOnUse" x1="-4" y1="-257.6" x2="1217.08" y2="-257.6" >
<stop offset="0" style="stop-color:deepskyblue;stop-opacity:1.;"/>
<stop offset="1" style="stop-color:lightblue;stop-opacity:1.;"/>
</linearGradient>
</defs>
<polygon fill="url(#l_0)" stroke="none" points="-4,4 -4,-519.2 1217.08,-519.2 1217.08,4 -4,4"/>
<text text-anchor="start" x="478.54" y="-496.2" font-family="Times,serif" font-weight="bold" font-size="20.00">Rule &#39;indent&#39; structure</text>
<!-- create_return -->
<g id="node1" class="node"><title>create_return</title>
<defs>
<linearGradient id="l_1" gradientUnits="userSpaceOnUse" x1="419.999" y1="-400.817" x2="624.163" y2="-400.817" >
<stop offset="0" style="stop-color:white;stop-opacity:1.;"/>
<stop offset="1" style="stop-color:#e0eeee;stop-opacity:1.;"/>
</linearGradient>
</defs>
<ellipse fill="url(#l_1)" stroke="black" cx="522.081" cy="-400.817" rx="102.082" ry="18"/>
<text text-anchor="middle" x="522.081" y="-397.117" font-family="Times,serif" font-size="14.00">return { ... (&gt; 20) }</text>
</g>
<!-- Program:exit -->
<g id="node12" class="node"><title>Program:exit</title>
<defs>
<linearGradient id="l_2" gradientUnits="userSpaceOnUse" x1="676.593" y1="-400.817" x2="819.568" y2="-400.817" >
<stop offset="0" style="stop-color:white;stop-opacity:1.;"/>
<stop offset="1" style="stop-color:#e0eeee;stop-opacity:1.;"/>
</linearGradient>
</defs>
<ellipse fill="url(#l_2)" stroke="black" cx="748.081" cy="-400.817" rx="71.4873" ry="18"/>
<text text-anchor="middle" x="748.081" y="-397.117" font-family="Times,serif" font-size="14.00">Program:exit</text>
</g>
<!-- create_return&#45;&gt;Program:exit -->
<g id="edge10" class="edge"><title>create_return&#45;&gt;Program:exit</title>
<path fill="none" stroke="black" d="M624.267,-400.817C638.311,-400.817 652.583,-400.817 666.19,-400.817"/>
<polygon fill="black" stroke="black" points="666.451,-404.317 676.451,-400.817 666.451,-397.317 666.451,-404.317"/>
</g>
<!-- e1 -->
<g id="node2" class="node"><title>e1</title>
<polygon fill="none" stroke="none" points="549.081,-165.817 495.081,-165.817 495.081,-129.817 549.081,-129.817 549.081,-165.817"/>
<text text-anchor="middle" x="522.081" y="-144.117" font-family="Times,serif" font-size="14.00" fill="red">...</text>
</g>
<!-- e2 -->
<g id="node3" class="node"><title>e2</title>
<polygon fill="none" stroke="none" points="549.081,-355.817 495.081,-355.817 495.081,-319.817 549.081,-319.817 549.081,-355.817"/>
<text text-anchor="middle" x="522.081" y="-334.117" font-family="Times,serif" font-size="14.00" fill="red">...</text>
</g>
<!-- e3 -->
<g id="node4" class="node"><title>e3</title>
<polygon fill="none" stroke="none" points="1061.08,-481.817 1007.08,-481.817 1007.08,-445.817 1061.08,-445.817 1061.08,-481.817"/>
<text text-anchor="middle" x="1034.08" y="-460.117" font-family="Times,serif" font-size="14.00" fill="red">...</text>
</g>
<!-- class TokenInfo -->
<g id="node5" class="node"><title>class TokenInfo</title>
<defs>
<linearGradient id="l_3" gradientUnits="userSpaceOnUse" x1="425.454" y1="-273.817" x2="618.707" y2="-273.817" >
<stop offset="0" style="stop-color:white;stop-opacity:1.;"/>
<stop offset="1" style="stop-color:#e0eeee;stop-opacity:1.;"/>
</linearGradient>
</defs>
<polygon fill="url(#l_3)" stroke="yellow" points="618.707,-273.817 570.394,-291.817 473.767,-291.817 425.454,-273.817 473.767,-255.817 570.394,-255.817 618.707,-273.817"/>
<text text-anchor="middle" x="522.081" y="-270.117" font-family="Times,serif" font-size="14.00">class TokenInfo</text>
</g>
<!-- class OffsetStorage -->
<g id="node6" class="node"><title>class OffsetStorage</title>
<defs>
<linearGradient id="l_4" gradientUnits="userSpaceOnUse" x1="403.426" y1="-210.817" x2="640.735" y2="-210.817" >
<stop offset="0" style="stop-color:white;stop-opacity:1.;"/>
<stop offset="1" style="stop-color:#e0eeee;stop-opacity:1.;"/>
</linearGradient>
</defs>
<polygon fill="url(#l_4)" stroke="yellow" points="640.735,-210.817 581.408,-228.817 462.753,-228.817 403.426,-210.817 462.753,-192.817 581.408,-192.817 640.735,-210.817"/>
<text text-anchor="middle" x="522.081" y="-207.117" font-family="Times,serif" font-size="14.00">class OffsetStorage</text>
</g>
<!-- module.exports -->
<g id="node7" class="node"><title>module.exports</title>
<defs>
<linearGradient id="l_5" gradientUnits="userSpaceOnUse" x1="-0.305053" y1="-210.817" x2="166.466" y2="-210.817" >
<stop offset="0" style="stop-color:white;stop-opacity:1.;"/>
<stop offset="1" style="stop-color:#e0eeee;stop-opacity:1.;"/>
</linearGradient>
</defs>
<ellipse fill="url(#l_5)" stroke="black" cx="83.0806" cy="-210.817" rx="83.3857" ry="18"/>
<text text-anchor="middle" x="83.0806" y="-207.117" font-family="Times,serif" font-size="14.00">module.exports</text>
</g>
<!-- create(context) -->
<g id="node8" class="node"><title>create(context)</title>
<defs>
<linearGradient id="l_6" gradientUnits="userSpaceOnUse" x1="202.495" y1="-273.817" x2="367.666" y2="-273.817" >
<stop offset="0" style="stop-color:white;stop-opacity:1.;"/>
<stop offset="1" style="stop-color:#e0eeee;stop-opacity:1.;"/>
</linearGradient>
</defs>
<ellipse fill="url(#l_6)" stroke="black" cx="285.081" cy="-273.817" rx="82.5854" ry="18"/>
<text text-anchor="middle" x="285.081" y="-270.117" font-family="Times,serif" font-size="14.00">create(context)</text>
</g>
<!-- module.exports&#45;&gt;create(context) -->
<g id="edge1" class="edge"><title>module.exports&#45;&gt;create(context)</title>
<path fill="none" stroke="black" d="M130.972,-225.588C159.83,-234.678 197.001,-246.387 227.492,-255.992"/>
<polygon fill="black" stroke="black" points="226.548,-259.364 237.137,-259.03 228.651,-252.687 226.548,-259.364"/>
</g>
<!-- meta -->
<g id="node9" class="node"><title>meta</title>
<defs>
<linearGradient id="l_7" gradientUnits="userSpaceOnUse" x1="250.687" y1="-115.817" x2="319.475" y2="-115.817" >
<stop offset="0" style="stop-color:white;stop-opacity:1.;"/>
<stop offset="1" style="stop-color:#e0eeee;stop-opacity:1.;"/>
</linearGradient>
</defs>
<ellipse fill="url(#l_7)" stroke="black" cx="285.081" cy="-115.817" rx="34.394" ry="18"/>
<text text-anchor="middle" x="285.081" y="-112.117" font-family="Times,serif" font-size="14.00">meta</text>
</g>
<!-- module.exports&#45;&gt;meta -->
<g id="edge2" class="edge"><title>module.exports&#45;&gt;meta</title>
<path fill="none" stroke="black" d="M118.462,-194.486C155.165,-177.052 212.984,-149.588 249.691,-132.152"/>
<polygon fill="black" stroke="black" points="251.465,-135.185 258.996,-127.733 248.461,-128.862 251.465,-135.185"/>
</g>
<!-- create(context)&#45;&gt;create_return -->
<g id="edge6" class="edge"><title>create(context)&#45;&gt;create_return</title>
<path fill="none" stroke="black" d="M304.53,-291.615C326.487,-311.919 365.035,-344.878 403.503,-364.817 417.943,-372.302 434.202,-378.52 449.919,-383.563"/>
<polygon fill="black" stroke="black" points="449.026,-386.95 459.613,-386.552 451.088,-380.261 449.026,-386.95"/>
</g>
<!-- create(context)&#45;&gt;e2 -->
<g id="edge7" class="edge"><title>create(context)&#45;&gt;e2</title>
<path fill="none" stroke="black" d="M337.888,-285.854C382.613,-298.034 446.343,-315.39 485.781,-326.131"/>
<path fill="none" stroke="white" d="M337.362,-287.783C382.087,-299.964 445.818,-317.32 485.255,-328.061"/>
<path fill="none" stroke="black" d="M336.836,-289.713C381.562,-301.894 445.292,-319.25 484.73,-329.99"/>
<polygon fill="black" stroke="black" points="484.405,-331.457 494.974,-330.707 486.245,-324.703 484.405,-331.457"/>
</g>
<!-- create(context)&#45;&gt;class TokenInfo -->
<g id="edge8" class="edge"><title>create(context)&#45;&gt;class TokenInfo</title>
<path fill="none" stroke="yellow" d="M367.942,-273.817C383.155,-273.817 399.248,-273.817 415.06,-273.817"/>
<polygon fill="yellow" stroke="yellow" points="415.399,-277.317 425.399,-273.817 415.399,-270.317 415.399,-277.317"/>
</g>
<!-- create(context)&#45;&gt;class OffsetStorage -->
<g id="edge9" class="edge"><title>create(context)&#45;&gt;class OffsetStorage</title>
<path fill="none" stroke="yellow" d="M337.943,-259.914C370.437,-251.203 412.791,-239.848 448.583,-230.253"/>
<polygon fill="yellow" stroke="yellow" points="449.738,-233.567 458.49,-227.597 447.925,-226.806 449.738,-233.567"/>
</g>
<!-- meta&#45;&gt;e1 -->
<g id="edge5" class="edge"><title>meta&#45;&gt;e1</title>
<path fill="none" stroke="black" d="M319.026,-118.285C362.668,-124.228 439.739,-134.723 485.116,-140.902"/>
<path fill="none" stroke="white" d="M318.756,-120.267C362.398,-126.21 439.469,-136.704 484.846,-142.883"/>
<path fill="none" stroke="black" d="M318.487,-122.249C362.128,-128.191 439.199,-138.686 484.577,-144.865"/>
<polygon fill="black" stroke="black" points="484.462,-146.363 494.843,-144.245 485.406,-139.427 484.462,-146.363"/>
</g>
<!-- fixable -->
<g id="node10" class="node"><title>fixable</title>
<defs>
<linearGradient id="l_8" gradientUnits="userSpaceOnUse" x1="479.587" y1="-84.8174" x2="564.575" y2="-84.8174" >
<stop offset="0" style="stop-color:white;stop-opacity:1.;"/>
<stop offset="1" style="stop-color:#e0eeee;stop-opacity:1.;"/>
</linearGradient>
</defs>
<ellipse fill="url(#l_8)" stroke="black" cx="522.081" cy="-84.8174" rx="42.4939" ry="18"/>
<text text-anchor="middle" x="522.081" y="-81.1174" font-family="Times,serif" font-size="14.00">fixable</text>
</g>
<!-- meta&#45;&gt;fixable -->
<g id="edge3" class="edge"><title>meta&#45;&gt;fixable</title>
<path fill="none" stroke="black" d="M318.756,-111.507C358.386,-106.279 425.582,-97.4151 471.579,-91.3473"/>
<polygon fill="black" stroke="black" points="472.175,-94.7992 481.631,-90.0214 471.259,-87.8593 472.175,-94.7992"/>
</g>
<!-- schema -->
<g id="node11" class="node"><title>schema</title>
<defs>
<linearGradient id="l_9" gradientUnits="userSpaceOnUse" x1="475.788" y1="-20.8174" x2="568.373" y2="-20.8174" >
<stop offset="0" style="stop-color:white;stop-opacity:1.;"/>
<stop offset="1" style="stop-color:#e0eeee;stop-opacity:1.;"/>
</linearGradient>
</defs>
<ellipse fill="url(#l_9)" stroke="black" cx="522.081" cy="-20.8174" rx="46.2923" ry="18"/>
<text text-anchor="middle" x="522.081" y="-17.1174" font-family="Times,serif" font-size="14.00">schema</text>
</g>
<!-- meta&#45;&gt;schema -->
<g id="edge4" class="edge"><title>meta&#45;&gt;schema</title>
<path fill="none" stroke="black" d="M309.431,-102.949C332.783,-90.3999 369.955,-71.2884 403.503,-57.8174 426.321,-48.6551 452.343,-40.2638 474.095,-33.7971"/>
<polygon fill="black" stroke="black" points="475.149,-37.1354 483.762,-30.9655 473.181,-30.4177 475.149,-37.1354"/>
</g>
<!-- Program:exit&#45;&gt;e3 -->
<g id="edge13" class="edge"><title>Program:exit&#45;&gt;e3</title>
<path fill="none" stroke="black" d="M798.394,-411.817C816.389,-416.445 836.994,-421.579 855.791,-425.868 904.483,-436.978 961.153,-448.156 997.141,-455.037"/>
<path fill="none" stroke="white" d="M797.896,-413.754C815.905,-418.385 836.51,-423.519 855.346,-427.817 904.096,-438.941 960.766,-450.118 996.766,-457.002"/>
<path fill="none" stroke="black" d="M797.397,-415.691C815.422,-420.326 836.026,-425.46 854.902,-429.767 903.709,-440.903 960.379,-452.081 996.39,-458.966"/>
<polygon fill="black" stroke="black" points="996.317,-460.479 1006.79,-458.91 997.625,-453.602 996.317,-460.479"/>
</g>
<!-- context.getSourceCode().ast.tokens -->
<g id="node13" class="node"><title>context.getSourceCode().ast.tokens</title>
<defs>
<linearGradient id="l_10" gradientUnits="userSpaceOnUse" x1="855.112" y1="-400.817" x2="1213.05" y2="-400.817" >
<stop offset="0" style="stop-color:white;stop-opacity:1.;"/>
<stop offset="1" style="stop-color:#e0eeee;stop-opacity:1.;"/>
</linearGradient>
</defs>
<ellipse fill="url(#l_10)" stroke="black" cx="1034.08" cy="-400.817" rx="178.969" ry="18"/>
<text text-anchor="middle" x="1034.08" y="-397.117" font-family="Times,serif" font-size="14.00">context.getSourceCode().ast.tokens</text>
</g>
<!-- Program:exit&#45;&gt;context.getSourceCode().ast.tokens -->
<g id="edge11" class="edge"><title>Program:exit&#45;&gt;context.getSourceCode().ast.tokens</title>
<path fill="none" stroke="black" d="M819.648,-400.817C827.764,-400.817 836.301,-400.817 845.103,-400.817"/>
<polygon fill="black" stroke="black" points="845.144,-404.317 855.144,-400.817 845.144,-397.317 845.144,-404.317"/>
</g>
<!-- context.getSourceCode().lines -->
<g id="node14" class="node"><title>context.getSourceCode().lines</title>
<defs>
<linearGradient id="l_11" gradientUnits="userSpaceOnUse" x1="881.908" y1="-337.817" x2="1186.25" y2="-337.817" >
<stop offset="0" style="stop-color:white;stop-opacity:1.;"/>
<stop offset="1" style="stop-color:#e0eeee;stop-opacity:1.;"/>
</linearGradient>
</defs>
<ellipse fill="url(#l_11)" stroke="black" cx="1034.08" cy="-337.817" rx="152.173" ry="18"/>
<text text-anchor="middle" x="1034.08" y="-334.117" font-family="Times,serif" font-size="14.00">context.getSourceCode().lines</text>
</g>
<!-- Program:exit&#45;&gt;context.getSourceCode().lines -->
<g id="edge12" class="edge"><title>Program:exit&#45;&gt;context.getSourceCode().lines</title>
<path fill="none" stroke="black" d="M797.896,-387.881C815.905,-383.25 836.51,-378.115 855.346,-373.817 883.902,-367.302 915.175,-360.768 943.419,-355.089"/>
<polygon fill="black" stroke="black" points="944.155,-358.511 953.274,-353.117 942.782,-351.647 944.155,-358.511"/>
</g>
</g>
</svg>
