<?xml version="1.0" encoding="UTF-8" standalone="no"?>
<!DOCTYPE svg PUBLIC "-//W3C//DTD SVG 1.1//EN"
 "http://www.w3.org/Graphics/SVG/1.1/DTD/svg11.dtd">
<!-- Generated by graphviz version 2.38.0 (20140413.2041)
 -->
<!-- Title: CoreStructure Pages: 1 -->
<svg width="376pt" height="404pt"
 viewBox="0.00 0.00 376.14 404.00" xmlns="http://www.w3.org/2000/svg" xmlns:xlink="http://www.w3.org/1999/xlink">
<g id="graph0" class="graph" transform="scale(1 1) rotate(0) translate(4 400)">
<title>CoreStructure</title>
<defs>
<linearGradient id="l_0" gradientUnits="userSpaceOnUse" x1="-4" y1="-198" x2="372.144" y2="-198" >
<stop offset="0" style="stop-color:deepskyblue;stop-opacity:1.;"/>
<stop offset="1" style="stop-color:lightblue;stop-opacity:1.;"/>
</linearGradient>
</defs>
<polygon fill="url(#l_0)" stroke="none" points="-4,4 -4,-400 372.144,-400 372.144,4 -4,4"/>
<text text-anchor="start" x="49.0721" y="-377" font-family="Times,serif" font-weight="bold" font-size="20.00">Core Package Structure</text>
<g id="clust1" class="cluster"><title>cluster_runQuery</title>
<defs>
<linearGradient id="l_1" gradientUnits="userSpaceOnUse" x1="12.8104" y1="-121" x2="149.81" y2="-121" >
<stop offset="0" style="stop-color:white;stop-opacity:1.;"/>
<stop offset="1" style="stop-color:#c1cdcd;stop-opacity:1.;"/>
</linearGradient>
</defs>
<polygon fill="url(#l_1)" stroke="black" points="12.8104,-64 12.8104,-178 149.81,-178 149.81,-64 12.8104,-64"/>
<text text-anchor="middle" x="81.3104" y="-158" font-family="Times,serif" font-size="20.00">runQuery.ts</text>
</g>
<!-- graphql -->
<g id="node1" class="node"><title>graphql</title>
<defs>
<linearGradient id="l_2" gradientUnits="userSpaceOnUse" x1="187.218" y1="-18" x2="280.403" y2="-18" >
<stop offset="0" style="stop-color:black;stop-opacity:1.;"/>
<stop offset="1" style="stop-color:#454545;stop-opacity:1.;"/>
</linearGradient>
</defs>
<ellipse fill="url(#l_2)" stroke="black" cx="233.81" cy="-18" rx="46.5926" ry="18"/>
<text text-anchor="middle" x="233.81" y="-14.3" font-family="Times,serif" font-size="14.00" fill="white">graphql</text>
</g>
<!-- index.ts -->
<g id="node2" class="node"><title>index.ts</title>
<defs>
<linearGradient id="l_3" gradientUnits="userSpaceOnUse" x1="81.6188" y1="-348" x2="178.002" y2="-348" >
<stop offset="0" style="stop-color:white;stop-opacity:1.;"/>
<stop offset="1" style="stop-color:#e0eeee;stop-opacity:1.;"/>
</linearGradient>
</defs>
<ellipse fill="url(#l_3)" stroke="black" cx="129.81" cy="-348" rx="48.1917" ry="18"/>
<text text-anchor="middle" x="129.81" y="-344.3" font-family="Times,serif" font-size="14.00">index.ts</text>
</g>
<!-- rq -->
<g id="node3" class="node"><title>rq</title>
<polygon fill="none" stroke="none" points="139.31,-140 22.3104,-140 22.3104,-72 139.31,-72 139.31,-140"/>
<text text-anchor="middle" x="80.8104" y="-124.8" font-family="Times,serif" font-size="14.00">runQuery</text>
<text text-anchor="middle" x="80.8104" y="-109.8" font-family="Times,serif" font-size="14.00">QueryOptions</text>
<text text-anchor="middle" x="80.8104" y="-94.8" font-family="Times,serif" font-size="14.00">GqlResponse</text>
<text text-anchor="middle" x="80.8104" y="-79.8" font-family="Times,serif" font-size="14.00">Log...</text>
</g>
<!-- index.ts&#45;&gt;rq -->
<g id="edge1" class="edge"><title>index.ts&#45;&gt;rq</title>
<path fill="none" stroke="purple" d="M86.9784,-339.808C60.4318,-332.899 28.3421,-319.548 11.8104,-294 -9.24905,-261.455 1.33378,-221.586 19.8992,-187.034"/>
<polygon fill="purple" stroke="purple" points="23.183,-188.337 25.0507,-177.908 17.0871,-184.896 23.183,-188.337"/>
</g>
<!-- runHTTPQuery.ts -->
<g id="node4" class="node"><title>runHTTPQuery.ts</title>
<defs>
<linearGradient id="l_4" gradientUnits="userSpaceOnUse" x1="36.9269" y1="-276" x2="222.694" y2="-276" >
<stop offset="0" style="stop-color:white;stop-opacity:1.;"/>
<stop offset="1" style="stop-color:#e0eeee;stop-opacity:1.;"/>
</linearGradient>
</defs>
<ellipse fill="url(#l_4)" stroke="black" cx="129.81" cy="-276" rx="92.8835" ry="18"/>
<text text-anchor="middle" x="129.81" y="-272.3" font-family="Times,serif" font-size="14.00">runHTTPQuery.ts</text>
</g>
<!-- index.ts&#45;&gt;runHTTPQuery.ts -->
<g id="edge2" class="edge"><title>index.ts&#45;&gt;runHTTPQuery.ts</title>
<path fill="none" stroke="purple" d="M129.81,-329.697C129.81,-321.983 129.81,-312.712 129.81,-304.112"/>
<polygon fill="purple" stroke="purple" points="133.311,-304.104 129.81,-294.104 126.311,-304.104 133.311,-304.104"/>
</g>
<!-- graphqlOptions.ts -->
<g id="node5" class="node"><title>graphqlOptions.ts</title>
<defs>
<linearGradient id="l_5" gradientUnits="userSpaceOnUse" x1="139.027" y1="-204" x2="328.594" y2="-204" >
<stop offset="0" style="stop-color:white;stop-opacity:1.;"/>
<stop offset="1" style="stop-color:#e0eeee;stop-opacity:1.;"/>
</linearGradient>
</defs>
<ellipse fill="url(#l_5)" stroke="black" cx="233.81" cy="-204" rx="94.7833" ry="18"/>
<text text-anchor="middle" x="233.81" y="-200.3" font-family="Times,serif" font-size="14.00">graphqlOptions.ts</text>
</g>
<!-- index.ts&#45;&gt;graphqlOptions.ts -->
<g id="edge3" class="edge"><title>index.ts&#45;&gt;graphqlOptions.ts</title>
<path fill="none" stroke="purple" d="M172.642,-339.808C199.189,-332.899 231.279,-319.548 247.81,-294 259.822,-275.437 254.3,-250.237 246.945,-231.391"/>
<polygon fill="purple" stroke="purple" points="250.16,-230.006 243.015,-222.183 243.722,-232.754 250.16,-230.006"/>
</g>
<!-- rq&#45;&gt;graphql -->
<g id="edge9" class="edge"><title>rq&#45;&gt;graphql</title>
<path fill="none" stroke="yellow" d="M149.602,-66.3328C166.864,-56.6302 184.654,-46.6303 199.41,-38.3362"/>
<polygon fill="yellow" stroke="yellow" points="201.21,-41.3394 208.212,-33.3884 197.78,-35.2373 201.21,-41.3394"/>
</g>
<!-- runHTTPQuery.ts&#45;&gt;graphql -->
<g id="edge6" class="edge"><title>runHTTPQuery.ts&#45;&gt;graphql</title>
<path fill="none" stroke="yellow" d="M209.197,-266.605C266.121,-258.757 335.805,-244.763 353.81,-222 402.07,-160.99 312.585,-78.7151 263.243,-40.3515"/>
<polygon fill="yellow" stroke="yellow" points="265.189,-37.4338 255.116,-34.1469 260.94,-42.9974 265.189,-37.4338"/>
</g>
<!-- runHTTPQuery.ts&#45;&gt;rq -->
<g id="edge5" class="edge"><title>runHTTPQuery.ts&#45;&gt;rq</title>
<path fill="none" stroke="purple" d="M124.563,-257.832C121.41,-247.466 117.339,-233.986 113.81,-222 110.526,-210.844 107.1,-199.067 103.751,-187.474"/>
<polygon fill="purple" stroke="purple" points="107.094,-186.436 100.961,-177.797 100.368,-188.376 107.094,-186.436"/>
</g>
<!-- runHTTPQuery.ts&#45;&gt;graphqlOptions.ts -->
<g id="edge4" class="edge"><title>runHTTPQuery.ts&#45;&gt;graphqlOptions.ts</title>
<path fill="none" stroke="purple" d="M154.194,-258.588C168.046,-249.265 185.581,-237.462 200.666,-227.308"/>
<polygon fill="purple" stroke="purple" points="202.878,-230.039 209.219,-221.552 198.969,-224.232 202.878,-230.039"/>
</g>
<!-- graphqlOptions.ts&#45;&gt;graphql -->
<g id="edge8" class="edge"><title>graphqlOptions.ts&#45;&gt;graphql</title>
<path fill="none" stroke="yellow" d="M233.81,-185.69C233.81,-153.69 233.81,-85.0461 233.81,-46.5762"/>
<polygon fill="yellow" stroke="yellow" points="237.311,-46.1302 233.81,-36.1302 230.311,-46.1303 237.311,-46.1302"/>
</g>
<!-- graphqlOptions.ts&#45;&gt;rq -->
<g id="edge7" class="edge"><title>graphqlOptions.ts&#45;&gt;rq</title>
<path fill="none" stroke="purple" d="M207.509,-186.497C193.766,-177.874 176.154,-166.823 158.46,-155.721"/>
<polygon fill="purple" stroke="purple" points="160.114,-152.627 149.784,-150.277 156.394,-158.557 160.114,-152.627"/>
</g>
</g>
</svg>
