<?xml version="1.0" encoding="UTF-8" standalone="no"?>
<!DOCTYPE svg PUBLIC "-//W3C//DTD SVG 1.1//EN"
 "http://www.w3.org/Graphics/SVG/1.1/DTD/svg11.dtd">
<!-- Generated by graphviz version 2.38.0 (20140413.2041)
 -->
<!-- Title: %3 Pages: 1 -->
<svg width="832pt" height="850pt"
 viewBox="0.00 0.00 831.76 850.00" xmlns="http://www.w3.org/2000/svg" xmlns:xlink="http://www.w3.org/1999/xlink">
<g id="graph0" class="graph" transform="scale(0.794393 0.794393) rotate(0) translate(4 1066)">
<title>%3</title>
<defs>
<linearGradient id="l_0" gradientUnits="userSpaceOnUse" x1="-4" y1="-531" x2="1043.04" y2="-531" >
<stop offset="0" style="stop-color:deepskyblue;stop-opacity:1.;"/>
<stop offset="1" style="stop-color:lightblue;stop-opacity:1.;"/>
</linearGradient>
</defs>
<polygon fill="url(#l_0)" stroke="none" points="-4,4 -4,-1066 1043.04,-1066 1043.04,4 -4,4"/>
<text text-anchor="start" x="400.519" y="-1047.8" font-family="Times,serif" font-weight="bold" font-size="14.00">Core Main Interdependencies</text>
<g id="clust1" class="cluster"><title>cluster_runQuery</title>
<defs>
<linearGradient id="l_1" gradientUnits="userSpaceOnUse" x1="288.378" y1="-856.491" x2="1031.04" y2="-856.491" >
<stop offset="0" style="stop-color:#ffb90f;stop-opacity:1.;"/>
<stop offset="1" style="stop-color:cornsilk;stop-opacity:1.;"/>
</linearGradient>
</defs>
<polygon fill="url(#l_1)" stroke="black" points="288.378,-684.92 288.378,-1028.06 1031.04,-1028.06 1031.04,-684.92 288.378,-684.92"/>
<text text-anchor="middle" x="659.708" y="-1012.86" font-family="Times,serif" font-size="14.00">runQuery.ts</text>
</g>
<g id="clust2" class="cluster"><title>cluster_interfaces</title>
<defs>
<linearGradient id="l_2" gradientUnits="userSpaceOnUse" x1="296.378" y1="-897.505" x2="870.048" y2="-897.505" >
<stop offset="0" style="stop-color:deepskyblue;stop-opacity:1.;"/>
<stop offset="1" style="stop-color:lightblue;stop-opacity:1.;"/>
</linearGradient>
</defs>
<polygon fill="url(#l_2)" stroke="black" points="296.378,-809.326 296.378,-985.683 870.048,-985.683 870.048,-809.326 296.378,-809.326"/>
<text text-anchor="middle" x="583.213" y="-970.483" font-family="Times,serif" font-size="14.00">interfaces</text>
</g>
<g id="clust3" class="cluster"><title>cluster_enum</title>
<defs>
<linearGradient id="l_3" gradientUnits="userSpaceOnUse" x1="890.048" y1="-803.174" x2="1023.04" y2="-803.174" >
<stop offset="0" style="stop-color:deepskyblue;stop-opacity:1.;"/>
<stop offset="1" style="stop-color:lightblue;stop-opacity:1.;"/>
</linearGradient>
</defs>
<polygon fill="url(#l_3)" stroke="black" points="890.048,-714.996 890.048,-891.353 1023.04,-891.353 1023.04,-714.996 890.048,-714.996"/>
<text text-anchor="middle" x="956.543" y="-876.153" font-family="Times,serif" font-size="14.00">enums</text>
</g>
<g id="clust4" class="cluster"><title>cluster_funcs</title>
<defs>
<linearGradient id="l_4" gradientUnits="userSpaceOnUse" x1="561.461" y1="-747.123" x2="854.005" y2="-747.123" >
<stop offset="0" style="stop-color:deepskyblue;stop-opacity:1.;"/>
<stop offset="1" style="stop-color:lightblue;stop-opacity:1.;"/>
</linearGradient>
</defs>
<polygon fill="url(#l_4)" stroke="black" points="561.461,-695.857 561.461,-798.389 854.005,-798.389 854.005,-695.857 561.461,-695.857"/>
<text text-anchor="middle" x="707.733" y="-783.189" font-family="Times,serif" font-size="14.00">functions</text>
</g>
<g id="clust5" class="cluster"><title>cluster_graphqlOptions</title>
<defs>
<linearGradient id="l_5" gradientUnits="userSpaceOnUse" x1="242.882" y1="-539.323" x2="702.961" y2="-539.323" >
<stop offset="0" style="stop-color:#ffb90f;stop-opacity:1.;"/>
<stop offset="1" style="stop-color:cornsilk;stop-opacity:1.;"/>
</linearGradient>
</defs>
<polygon fill="url(#l_5)" stroke="black" points="242.882,-404.663 242.882,-673.983 702.961,-673.983 702.961,-404.663 242.882,-404.663"/>
<text text-anchor="middle" x="472.922" y="-658.783" font-family="Times,serif" font-size="14.00">graphqlOptions.ts</text>
</g>
<g id="clust6" class="cluster"><title>cluster_interfaces2</title>
<defs>
<linearGradient id="l_6" gradientUnits="userSpaceOnUse" x1="250.882" y1="-466.866" x2="509.961" y2="-466.866" >
<stop offset="0" style="stop-color:deepskyblue;stop-opacity:1.;"/>
<stop offset="1" style="stop-color:lightblue;stop-opacity:1.;"/>
</linearGradient>
</defs>
<polygon fill="url(#l_6)" stroke="black" points="250.882,-415.6 250.882,-518.133 509.961,-518.133 509.961,-415.6 250.882,-415.6"/>
<text text-anchor="middle" x="380.422" y="-502.933" font-family="Times,serif" font-size="14.00">interfaces</text>
</g>
<g id="clust7" class="cluster"><title>cluster_funcs2</title>
<defs>
<linearGradient id="l_7" gradientUnits="userSpaceOnUse" x1="281.422" y1="-580.336" x2="694.961" y2="-580.336" >
<stop offset="0" style="stop-color:deepskyblue;stop-opacity:1.;"/>
<stop offset="1" style="stop-color:lightblue;stop-opacity:1.;"/>
</linearGradient>
</defs>
<polygon fill="url(#l_7)" stroke="black" points="281.422,-529.07 281.422,-631.603 694.961,-631.603 694.961,-529.07 281.422,-529.07"/>
<text text-anchor="middle" x="488.191" y="-616.403" font-family="Times,serif" font-size="14.00">functions</text>
</g>
<g id="clust8" class="cluster"><title>cluster_http</title>
<defs>
<linearGradient id="l_8" gradientUnits="userSpaceOnUse" x1="8" y1="-202.332" x2="468.922" y2="-202.332" >
<stop offset="0" style="stop-color:#ffb90f;stop-opacity:1.;"/>
<stop offset="1" style="stop-color:cornsilk;stop-opacity:1.;"/>
</linearGradient>
</defs>
<polygon fill="url(#l_8)" stroke="black" points="8,-10.9368 8,-393.726 468.922,-393.726 468.922,-10.9368 8,-10.9368"/>
<text text-anchor="middle" x="238.461" y="-378.526" font-family="Times,serif" font-size="14.00">runHTTPQuery.ts</text>
</g>
<g id="clust9" class="cluster"><title>cluster_interfaces3</title>
<defs>
<linearGradient id="l_9" gradientUnits="userSpaceOnUse" x1="16" y1="-300.08" x2="230.882" y2="-300.08" >
<stop offset="0" style="stop-color:deepskyblue;stop-opacity:1.;"/>
<stop offset="1" style="stop-color:lightblue;stop-opacity:1.;"/>
</linearGradient>
</defs>
<polygon fill="url(#l_9)" stroke="black" points="16,-248.813 16,-351.346 230.882,-351.346 230.882,-248.813 16,-248.813"/>
<text text-anchor="middle" x="123.441" y="-336.146" font-family="Times,serif" font-size="14.00">interfaces</text>
</g>
<g id="clust10" class="cluster"><title>cluster_classes</title>
<defs>
<linearGradient id="l_10" gradientUnits="userSpaceOnUse" x1="28.3489" y1="-186.61" x2="218.533" y2="-186.61" >
<stop offset="0" style="stop-color:deepskyblue;stop-opacity:1.;"/>
<stop offset="1" style="stop-color:lightblue;stop-opacity:1.;"/>
</linearGradient>
</defs>
<polygon fill="url(#l_10)" stroke="black" points="28.3489,-135.343 28.3489,-237.876 218.533,-237.876 218.533,-135.343 28.3489,-135.343"/>
<text text-anchor="middle" x="123.441" y="-222.676" font-family="Times,serif" font-size="14.00">classes</text>
</g>
<g id="clust11" class="cluster"><title>cluster_funcs3</title>
<defs>
<linearGradient id="l_11" gradientUnits="userSpaceOnUse" x1="51.4412" y1="-73.1401" x2="460.922" y2="-73.1401" >
<stop offset="0" style="stop-color:deepskyblue;stop-opacity:1.;"/>
<stop offset="1" style="stop-color:lightblue;stop-opacity:1.;"/>
</linearGradient>
</defs>
<polygon fill="url(#l_11)" stroke="black" points="51.4412,-21.8737 51.4412,-124.407 460.922,-124.407 460.922,-21.8737 51.4412,-21.8737"/>
<text text-anchor="middle" x="256.181" y="-109.207" font-family="Times,serif" font-size="14.00">functions</text>
</g>
<!-- graphql -->
<g id="node1" class="node"><title>graphql</title>
<ellipse fill="black" stroke="black" cx="957.038" cy="-252.504" rx="46.5926" ry="18"/>
<text text-anchor="middle" x="957.038" y="-248.804" font-family="Times,serif" font-size="14.00" fill="white">graphql</text>
</g>
<!-- runQuery -->
<g id="node2" class="node"><title>runQuery</title>
<defs>
<linearGradient id="l_12" gradientUnits="userSpaceOnUse" x1="569.038" y1="-731.504" x2="655.038" y2="-731.504" >
<stop offset="0" style="stop-color:#66cd00;stop-opacity:1.;"/>
<stop offset="1" style="stop-color:#76eec6;stop-opacity:1.;"/>
</linearGradient>
</defs>
<polygon fill="url(#l_12)" stroke="purple" points="655.038,-749.504 569.038,-749.504 569.038,-713.504 655.038,-713.504 655.038,-749.504"/>
<text text-anchor="middle" x="612.038" y="-727.804" font-family="Times,serif" font-size="14.00">runQuery</text>
</g>
<!-- doRunQuery -->
<g id="node3" class="node"><title>doRunQuery</title>
<polygon fill="none" stroke="yellow" points="845.538,-749.504 738.538,-749.504 738.538,-713.504 845.538,-713.504 845.538,-749.504"/>
<text text-anchor="middle" x="792.038" y="-727.804" font-family="Times,serif" font-size="14.00">doRunQuery</text>
</g>
<!-- runQuery&#45;&gt;doRunQuery -->
<g id="edge1" class="edge"><title>runQuery&#45;&gt;doRunQuery</title>
<path fill="none" stroke="black" d="M655.222,-731.504C676.991,-731.504 703.984,-731.504 728.157,-731.504"/>
<polygon fill="black" stroke="black" points="728.321,-735.004 738.321,-731.504 728.321,-728.004 728.321,-735.004"/>
</g>
<!-- doRunQuery&#45;&gt;graphql -->
<g id="edge11" class="edge"><title>doRunQuery&#45;&gt;graphql</title>
<path fill="none" stroke="black" d="M799.229,-713.311C824.093,-640.244 916.786,-367.851 946.681,-280.002"/>
<polygon fill="black" stroke="black" points="950.02,-281.053 949.928,-270.459 943.393,-278.798 950.02,-281.053"/>
</g>
<!-- LogStep -->
<g id="node8" class="node"><title>LogStep</title>
<defs>
<linearGradient id="l_13" gradientUnits="userSpaceOnUse" x1="906.947" y1="-824.504" x2="1007.13" y2="-824.504" >
<stop offset="0" style="stop-color:#66cd00;stop-opacity:1.;"/>
<stop offset="1" style="stop-color:#76eec6;stop-opacity:1.;"/>
</linearGradient>
</defs>
<ellipse fill="url(#l_13)" stroke="purple" cx="957.038" cy="-824.504" rx="50.0912" ry="18"/>
<text text-anchor="middle" x="957.038" y="-820.804" font-family="Times,serif" font-size="14.00">LogStep</text>
</g>
<!-- doRunQuery&#45;&gt;LogStep -->
<g id="edge3" class="edge"><title>doRunQuery&#45;&gt;LogStep</title>
<path fill="none" stroke="black" d="M824.853,-749.656C852.358,-765.349 892.071,-788.007 920.588,-804.278"/>
<polygon fill="black" stroke="black" points="919.003,-807.403 929.423,-809.319 922.472,-801.323 919.003,-807.403"/>
</g>
<!-- LogAction -->
<g id="node9" class="node"><title>LogAction</title>
<defs>
<linearGradient id="l_14" gradientUnits="userSpaceOnUse" x1="898.548" y1="-750.504" x2="1015.53" y2="-750.504" >
<stop offset="0" style="stop-color:#66cd00;stop-opacity:1.;"/>
<stop offset="1" style="stop-color:#76eec6;stop-opacity:1.;"/>
</linearGradient>
</defs>
<ellipse fill="url(#l_14)" stroke="purple" cx="957.038" cy="-750.504" rx="58.4896" ry="18"/>
<text text-anchor="middle" x="957.038" y="-746.804" font-family="Times,serif" font-size="14.00">LogAction</text>
</g>
<!-- doRunQuery&#45;&gt;LogAction -->
<g id="edge2" class="edge"><title>doRunQuery&#45;&gt;LogAction</title>
<path fill="none" stroke="black" d="M845.959,-737.673C860.537,-739.372 876.51,-741.234 891.658,-742.999"/>
<polygon fill="black" stroke="black" points="891.647,-746.522 901.985,-744.203 892.458,-739.569 891.647,-746.522"/>
</g>
<!-- GqlResponse -->
<g id="node4" class="node"><title>GqlResponse</title>
<ellipse fill="none" stroke="purple" cx="380.038" cy="-918.504" rx="71.4873" ry="18"/>
<text text-anchor="middle" x="380.038" y="-914.804" font-family="Times,serif" font-size="14.00">GqlResponse</text>
</g>
<!-- LogMessage -->
<g id="node5" class="node"><title>LogMessage</title>
<defs>
<linearGradient id="l_15" gradientUnits="userSpaceOnUse" x1="722.45" y1="-844.504" x2="861.626" y2="-844.504" >
<stop offset="0" style="stop-color:#66cd00;stop-opacity:1.;"/>
<stop offset="1" style="stop-color:#76eec6;stop-opacity:1.;"/>
</linearGradient>
</defs>
<ellipse fill="url(#l_15)" stroke="purple" cx="792.038" cy="-844.504" rx="69.5877" ry="18"/>
<text text-anchor="middle" x="792.038" y="-840.804" font-family="Times,serif" font-size="14.00">LogMessage</text>
</g>
<!-- LogMessage&#45;&gt;LogStep -->
<g id="edge5" class="edge"><title>LogMessage&#45;&gt;LogStep</title>
<path fill="none" stroke="black" d="M855.126,-836.886C869.606,-835.109 884.953,-833.226 899.192,-831.479"/>
<polygon fill="black" stroke="black" points="899.836,-834.926 909.336,-830.234 898.984,-827.978 899.836,-834.926"/>
</g>
<!-- LogMessage&#45;&gt;LogAction -->
<g id="edge4" class="edge"><title>LogMessage&#45;&gt;LogAction</title>
<path fill="none" stroke="black" d="M823.366,-828.221C837.488,-820.548 854.469,-811.191 869.582,-802.504 886.592,-792.727 905.269,-781.55 920.898,-772.07"/>
<polygon fill="black" stroke="black" points="922.987,-774.896 929.712,-766.708 919.349,-768.915 922.987,-774.896"/>
</g>
<!-- LogFunction -->
<g id="node6" class="node"><title>LogFunction</title>
<defs>
<linearGradient id="l_16" gradientUnits="userSpaceOnUse" x1="542.45" y1="-844.504" x2="681.626" y2="-844.504" >
<stop offset="0" style="stop-color:#66cd00;stop-opacity:1.;"/>
<stop offset="1" style="stop-color:#76eec6;stop-opacity:1.;"/>
</linearGradient>
</defs>
<ellipse fill="url(#l_16)" stroke="purple" cx="612.038" cy="-844.504" rx="69.5877" ry="18"/>
<text text-anchor="middle" x="612.038" y="-840.804" font-family="Times,serif" font-size="14.00">LogFunction</text>
</g>
<!-- LogFunction&#45;&gt;LogMessage -->
<g id="edge6" class="edge"><title>LogFunction&#45;&gt;LogMessage</title>
<path fill="none" stroke="black" d="M681.603,-844.504C691.592,-844.504 701.945,-844.504 712.119,-844.504"/>
<polygon fill="black" stroke="black" points="712.215,-848.004 722.215,-844.504 712.215,-841.004 712.215,-848.004"/>
</g>
<!-- QueryOptions -->
<g id="node7" class="node"><title>QueryOptions</title>
<ellipse fill="none" stroke="purple" cx="380.038" cy="-844.504" rx="76.0865" ry="18"/>
<text text-anchor="middle" x="380.038" y="-840.804" font-family="Times,serif" font-size="14.00">QueryOptions</text>
</g>
<!-- QueryOptions&#45;&gt;LogFunction -->
<g id="edge7" class="edge"><title>QueryOptions&#45;&gt;LogFunction</title>
<path fill="none" stroke="black" d="M456.349,-844.504C480.537,-844.504 507.395,-844.504 531.852,-844.504"/>
<polygon fill="black" stroke="black" points="532.172,-848.004 542.172,-844.504 532.172,-841.004 532.172,-848.004"/>
</g>
<!-- GraphQLServerOptions -->
<g id="node10" class="node"><title>GraphQLServerOptions</title>
<defs>
<linearGradient id="l_17" gradientUnits="userSpaceOnUse" x1="258.46" y1="-451.504" x2="501.617" y2="-451.504" >
<stop offset="0" style="stop-color:#66cd00;stop-opacity:1.;"/>
<stop offset="1" style="stop-color:#76eec6;stop-opacity:1.;"/>
</linearGradient>
</defs>
<ellipse fill="url(#l_17)" stroke="purple" cx="380.038" cy="-451.504" rx="121.578" ry="18"/>
<text text-anchor="middle" x="380.038" y="-447.804" font-family="Times,serif" font-size="14.00">GraphQLServerOptions</text>
</g>
<!-- GraphQLServerOptions&#45;&gt;graphql -->
<g id="edge9" class="edge"><title>GraphQLServerOptions&#45;&gt;graphql</title>
<path fill="none" stroke="black" d="M429.073,-434.88C538.763,-396.917 806.318,-304.32 912.026,-267.736"/>
<polygon fill="black" stroke="black" points="913.435,-270.952 921.74,-264.374 911.146,-264.337 913.435,-270.952"/>
</g>
<!-- GraphQLServerOptions&#45;&gt;LogFunction -->
<g id="edge8" class="edge"><title>GraphQLServerOptions&#45;&gt;LogFunction</title>
<path fill="none" stroke="black" d="M432.199,-467.889C459.782,-479.481 491.736,-497.944 509.577,-525.504 576.82,-629.375 470.129,-698.741 537.538,-802.504 543.484,-811.657 552.166,-819.034 561.496,-824.895"/>
<polygon fill="black" stroke="black" points="559.767,-827.938 570.186,-829.859 563.239,-821.86 559.767,-827.938"/>
</g>
<!-- resolveGraphqlOptions -->
<g id="node11" class="node"><title>resolveGraphqlOptions</title>
<defs>
<linearGradient id="l_18" gradientUnits="userSpaceOnUse" x1="289.038" y1="-564.504" x2="471.038" y2="-564.504" >
<stop offset="0" style="stop-color:#66cd00;stop-opacity:1.;"/>
<stop offset="1" style="stop-color:#76eec6;stop-opacity:1.;"/>
</linearGradient>
</defs>
<polygon fill="url(#l_18)" stroke="purple" points="471.038,-582.504 289.038,-582.504 289.038,-546.504 471.038,-546.504 471.038,-582.504"/>
<text text-anchor="middle" x="380.038" y="-560.804" font-family="Times,serif" font-size="14.00">resolveGraphqlOptions</text>
</g>
<!-- isOptionsFunction -->
<g id="node12" class="node"><title>isOptionsFunction</title>
<polygon fill="none" stroke="purple" points="686.538,-582.504 537.538,-582.504 537.538,-546.504 686.538,-546.504 686.538,-582.504"/>
<text text-anchor="middle" x="612.038" y="-560.804" font-family="Times,serif" font-size="14.00">isOptionsFunction</text>
</g>
<!-- resolveGraphqlOptions&#45;&gt;isOptionsFunction -->
<g id="edge18" class="edge"><title>resolveGraphqlOptions&#45;&gt;isOptionsFunction</title>
<path fill="none" stroke="black" d="M471.28,-564.504C489.757,-564.504 509.128,-564.504 527.362,-564.504"/>
<polygon fill="black" stroke="black" points="527.363,-568.004 537.363,-564.504 527.363,-561.004 527.363,-568.004"/>
</g>
<!-- HttpQueryRequest -->
<g id="node13" class="node"><title>HttpQueryRequest</title>
<defs>
<linearGradient id="l_19" gradientUnits="userSpaceOnUse" x1="23.6557" y1="-284.504" x2="222.42" y2="-284.504" >
<stop offset="0" style="stop-color:#66cd00;stop-opacity:1.;"/>
<stop offset="1" style="stop-color:#76eec6;stop-opacity:1.;"/>
</linearGradient>
</defs>
<ellipse fill="url(#l_19)" stroke="purple" cx="123.038" cy="-284.504" rx="99.3824" ry="18"/>
<text text-anchor="middle" x="123.038" y="-280.804" font-family="Times,serif" font-size="14.00">HttpQueryRequest</text>
</g>
<!-- HttpQueryRequest&#45;&gt;GraphQLServerOptions -->
<g id="edge10" class="edge"><title>HttpQueryRequest&#45;&gt;GraphQLServerOptions</title>
<path fill="none" stroke="black" d="M150.846,-302.06C197.142,-332.38 292.069,-394.548 343.699,-428.36"/>
<polygon fill="black" stroke="black" points="341.924,-431.382 352.207,-433.932 345.759,-425.526 341.924,-431.382"/>
</g>
<!-- HttpQueryError -->
<g id="node14" class="node"><title>HttpQueryError</title>
<defs>
<linearGradient id="l_20" gradientUnits="userSpaceOnUse" x1="35.8534" y1="-170.504" x2="210.223" y2="-170.504" >
<stop offset="0" style="stop-color:#66cd00;stop-opacity:1.;"/>
<stop offset="1" style="stop-color:#76eec6;stop-opacity:1.;"/>
</linearGradient>
</defs>
<ellipse fill="url(#l_20)" stroke="purple" cx="123.038" cy="-170.504" rx="87.1846" ry="18"/>
<text text-anchor="middle" x="123.038" y="-166.804" font-family="Times,serif" font-size="14.00">HttpQueryError</text>
</g>
<!-- isQueryOperation -->
<g id="node15" class="node"><title>isQueryOperation</title>
<polygon fill="none" stroke="yellow" points="452.538,-75.5039 307.538,-75.5039 307.538,-39.5039 452.538,-39.5039 452.538,-75.5039"/>
<text text-anchor="middle" x="380.038" y="-53.8039" font-family="Times,serif" font-size="14.00">isQueryOperation</text>
</g>
<!-- isQueryOperation&#45;&gt;graphql -->
<g id="edge12" class="edge"><title>isQueryOperation&#45;&gt;graphql</title>
<path fill="none" stroke="black" d="M434.359,-75.5867C546.962,-113.774 807.201,-202.029 911.56,-237.42"/>
<polygon fill="black" stroke="black" points="910.568,-240.779 921.163,-240.677 912.816,-234.15 910.568,-240.779"/>
</g>
<!-- runHTTPQuery -->
<g id="node16" class="node"><title>runHTTPQuery</title>
<defs>
<linearGradient id="l_21" gradientUnits="userSpaceOnUse" x1="59.0381" y1="-57.5039" x2="187.038" y2="-57.5039" >
<stop offset="0" style="stop-color:#66cd00;stop-opacity:1.;"/>
<stop offset="1" style="stop-color:#76eec6;stop-opacity:1.;"/>
</linearGradient>
</defs>
<polygon fill="url(#l_21)" stroke="purple" points="187.038,-75.5039 59.0381,-75.5039 59.0381,-39.5039 187.038,-39.5039 187.038,-75.5039"/>
<text text-anchor="middle" x="123.038" y="-53.8039" font-family="Times,serif" font-size="14.00">runHTTPQuery</text>
</g>
<!-- runHTTPQuery&#45;&gt;graphql -->
<g id="edge14" class="edge"><title>runHTTPQuery&#45;&gt;graphql</title>
<path fill="none" stroke="black" d="M187.219,-40.3517C204.964,-36.2881 224.367,-32.5441 242.499,-30.5039 360.456,-17.2315 392.964,-8.33657 509.577,-30.5039 678.55,-62.6246 723.962,-80.9703 869.582,-172.504 894.055,-187.887 917.86,-210.672 934.274,-227.996"/>
<polygon fill="black" stroke="black" points="931.9,-230.582 941.272,-235.525 937.028,-225.817 931.9,-230.582"/>
</g>
<!-- runHTTPQuery&#45;&gt;runQuery -->
<g id="edge17" class="edge"><title>runHTTPQuery&#45;&gt;runQuery</title>
<path fill="none" stroke="yellow" d="M167.294,-75.6193C190.428,-87.7787 216.884,-106.233 230.479,-131.504 243.749,-156.169 225.108,-613.549 242.499,-635.504 318.285,-731.181 476.412,-738.791 558.717,-735.593"/>
<polygon fill="yellow" stroke="yellow" points="559.019,-739.083 568.849,-735.13 558.699,-732.091 559.019,-739.083"/>
</g>
<!-- runHTTPQuery&#45;&gt;GraphQLServerOptions -->
<g id="edge13" class="edge"><title>runHTTPQuery&#45;&gt;GraphQLServerOptions</title>
<path fill="none" stroke="black" d="M159.294,-75.5943C181.975,-88.6523 210.785,-108.073 230.479,-131.504 308.367,-224.17 354.535,-364.477 371.539,-423.638"/>
<polygon fill="black" stroke="black" points="368.205,-424.713 374.286,-433.389 374.943,-422.814 368.205,-424.713"/>
</g>
<!-- runHTTPQuery&#45;&gt;resolveGraphqlOptions -->
<g id="edge16" class="edge"><title>runHTTPQuery&#45;&gt;resolveGraphqlOptions</title>
<path fill="none" stroke="red" d="M166.957,-75.5119C190.133,-87.6812 216.744,-106.181 230.479,-131.504 251.203,-169.71 216.141,-487.943 242.499,-522.504 251.937,-534.879 264.952,-543.711 279.224,-549.993"/>
<polygon fill="red" stroke="red" points="278.173,-553.341 288.76,-553.765 280.748,-546.832 278.173,-553.341"/>
</g>
<!-- runHTTPQuery&#45;&gt;isQueryOperation -->
<g id="edge15" class="edge"><title>runHTTPQuery&#45;&gt;isQueryOperation</title>
<path fill="none" stroke="black" d="M187.072,-57.5039C220.228,-57.5039 261.277,-57.5039 296.896,-57.5039"/>
<polygon fill="black" stroke="black" points="297.272,-61.004 307.272,-57.5039 297.272,-54.004 297.272,-61.004"/>
</g>
</g>
</svg>
